<?xml version="1.0" encoding="utf-8"?>
<!-- Generator: Adobe Illustrator 22.1.0, SVG Export Plug-In . SVG Version: 6.00 Build 0)  -->
<svg version="1.1" id="Layer_1" xmlns="http://www.w3.org/2000/svg" xmlns:xlink="http://www.w3.org/1999/xlink" x="0px" y="0px"
	 viewBox="0 0 512 512" style="enable-background:new 0 0 512 512;" xml:space="preserve">
<style type="text/css">
	.st0{fill:#827AE0;}
	.st1{fill:#FFD061;}
	.st2{fill:#E9B335;}
	.st3{fill:#E8A300;}
	.st4{fill:#E59F23;}
	.st5{fill:#D38913;}
	.st6{fill:#E4EAF8;}
	.st7{fill:#D8DCE5;}
	.st8{fill:#C3C8D1;}
	.st9{fill:#DF458E;}
	.st10{fill:#FA70B2;}
</style>
<g id="illustration" transform="translate(-25.83)">
	<path id="Path_3835" class="st0" d="M496.6,209.1C488.2,132.1,438,61,362.5,30.7h109.7c4.3,0,7.7-3.5,7.7-7.7s-3.5-7.7-7.7-7.7
		H91.5c-4.3,0-7.7,3.5-7.7,7.7s3.5,7.7,7.7,7.7h110.9C126.9,61,76.6,132,68.2,209.1c-0.5,4.2,2.6,8.1,6.8,8.5c0.3,0,0.6,0,0.8,0
		c3.9,0,7.2-3,7.7-6.9C93.7,118.5,168,42.1,260.3,32c1.2-0.1,2.4-0.6,3.4-1.2h37.5c1,0.7,2.2,1.1,3.4,1.2
		c92.3,10.2,166.6,86.6,176.7,178.9c0.4,3.9,3.7,6.9,7.7,6.9c0.3,0,0.6,0,0.9,0C494,217.2,497,213.4,496.6,209.1z"/>
	<path id="Path_3836" class="st1" d="M415.8,276.3L288.9,90.1c-2.3-3.3-6.8-4.2-10.1-1.9c-0.8,0.5-1.4,1.2-1.9,1.9L150.1,276.3
		c-5.6,8.2-4.6,19.2,2.4,26.2l60.4,61.3c3.7,3.7,5.7,8.7,5.7,13.9V412h128.7v-34.3c0-5.2,2.1-10.2,5.7-13.9l60.4-61.3
		C420.4,295.4,421.4,284.4,415.8,276.3z"/>
	<path id="Path_3837" class="st2" d="M233.5,363.8L173,302.5c-7-7.1-7.9-18-2.4-26.2L293.2,96.4l-4.3-6.3c-2.3-3.3-6.8-4.2-10.1-1.9
		c-0.8,0.5-1.4,1.2-1.9,1.9L150.1,276.3c-5.6,8.2-4.6,19.2,2.4,26.2l60.4,61.3c3.7,3.7,5.7,8.7,5.7,13.9V412h20.6v-34.3
		C239.2,372.5,237.1,367.5,233.5,363.8z"/>
	<g id="Group_1413">
		<path id="Path_3838" class="st3" d="M288.9,90.1c-2.3-3.3-6.8-4.2-10.1-1.9c-0.8,0.5-1.4,1.2-1.9,1.9l-1.7,2.5v211.5
			c0,4.3,3.5,7.7,7.7,7.7c4.3,0,7.7-3.5,7.7-7.7V92.6L288.9,90.1z"/>
		<path id="Path_3839" class="st4" d="M293.6,284.9h-21.4c-10.6,0-19.3,8.6-19.3,19.3s8.6,19.3,19.3,19.3h21.4
			c10.6,0,19.3-8.6,19.3-19.3S304.2,284.9,293.6,284.9L293.6,284.9z"/>
	</g>
	<path id="Path_3840" class="st5" d="M293.6,303.1h-21.4c-6.6,0-12.8-3.4-16.3-9.1c-5.6,9-2.9,20.9,6.1,26.5
		c3.1,1.9,6.6,2.9,10.2,2.9h21.4c10.6,0,19.3-8.6,19.3-19.2c0-3.6-1-7.2-2.9-10.2C306.4,299.6,300.2,303.1,293.6,303.1z"/>
	<path id="Path_3841" class="st6" d="M230.6,466.7v34.1c0,6.2,5,11.2,11.2,11.2H324c6.2,0,11.2-5,11.2-11.2c0,0,0,0,0,0v-34.1H230.6
		z"/>
	<g id="Group_1414">
		<path id="Path_3842" class="st7" d="M251.2,500.8v-34.1h-20.6v34.1c0,6.2,5,11.2,11.2,11.2h20.6C256.2,512,251.2,507,251.2,500.8z
			"/>
		<path id="Path_3843" class="st7" d="M352.1,411.1H213.7c-6.8,0-12.4,5.5-12.4,12.4v31.4c0,6.8,5.5,12.4,12.4,12.4h138.4
			c6.8,0,12.4-5.5,12.4-12.4v-31.4C364.5,416.6,359,411.1,352.1,411.1z"/>
	</g>
	<path id="Path_3844" class="st8" d="M352.1,446.6H213.7c-6.8,0-12.4-5.5-12.4-12.4v20.6c0,6.8,5.5,12.4,12.4,12.4h138.4
		c6.8,0,12.4-5.5,12.4-12.4v-20.6C364.5,441.1,359,446.6,352.1,446.6z"/>
	<path id="Path_3845" class="st9" d="M85.6,207.9H63.8c-6.7,0-12.1,5.4-12.1,12.1c0,0,0,0,0,0v21.8c0,6.7,5.4,12.1,12.1,12.1
		c0,0,0,0,0,0h21.8c6.7,0,12.1-5.4,12.1-12.1l0,0V220C97.6,213.3,92.2,207.9,85.6,207.9z"/>
	<path id="Path_3846" class="st10" d="M72.3,241.8V220c0-6.7,5.4-12.1,12.1-12.1H63.8c-6.7,0-12.1,5.4-12.1,12.1v21.8
		c0,6.7,5.4,12.1,12.1,12.1c0,0,0,0,0,0h20.6C77.7,253.9,72.3,248.5,72.3,241.8z"/>
	<circle id="Ellipse_333" class="st9" cx="74.7" cy="23" r="23"/>
	<path id="Path_3847" class="st10" d="M72.3,23c0-8.7,4.9-16.7,12.7-20.6C73.6-3.3,59.8,1.3,54.1,12.7S53,37.8,64.3,43.5
		c6.5,3.3,14.1,3.3,20.6,0C77.2,39.6,72.3,31.7,72.3,23z"/>
	<path id="Path_3848" class="st9" d="M499.9,207.9h-21.8c-6.7,0-12.1,5.4-12.1,12.1v21.8c0,6.7,5.4,12.1,12.1,12.1h21.8
		c6.7,0,12.1-5.4,12.1-12.1V220C512,213.3,506.6,207.9,499.9,207.9z"/>
	<path id="Path_3849" class="st10" d="M486.6,241.8V220c0-6.7,5.4-12.1,12.1-12.1h-20.6c-6.7,0-12.1,5.4-12.1,12.1v21.8
		c0,6.7,5.4,12.1,12.1,12.1h20.6C492,253.9,486.6,248.5,486.6,241.8z"/>
	<path id="Path_3850" class="st9" d="M293.3,0h-21.8c-6.7,0-12.1,5.4-12.1,12.1c0,0,0,0,0,0v21.8c0,6.7,5.4,12.1,12.1,12.1l0,0h21.8
		c6.7,0,12.1-5.4,12.1-12.1V12.1C305.4,5.4,300,0,293.3,0C293.3,0,293.3,0,293.3,0z"/>
	<path id="Path_3851" class="st10" d="M280,33.9V12.1C280,5.4,285.4,0,292.1,0c0,0,0,0,0,0h-20.6c-6.7,0-12.1,5.4-12.1,12.1
		c0,0,0,0,0,0v21.8c0,6.7,5.4,12.1,12.1,12.1l0,0h20.6C285.4,46,280,40.6,280,33.9z"/>
	<circle id="Ellipse_334" class="st9" cx="488.9" cy="23.2" r="23"/>
	<path id="Path_3852" class="st10" d="M486.5,23.2c0-8.7,4.9-16.7,12.7-20.6c-11.3-5.7-25.2-1.1-30.9,10.2s-1.1,25.2,10.2,30.9
		c6.5,3.3,14.1,3.3,20.6,0C491.4,39.8,486.5,31.9,486.5,23.2z"/>
</g>
</svg>
