<svg xmlns="http://www.w3.org/2000/svg" width="477.03" height="477.03" viewBox="0 0 477.03 477.03">
  <g id="_010-spotlight" data-name="010-spotlight" transform="translate(-75)">
    <path id="Path_3811" data-name="Path 3811" d="M234.753,273.251,195,352.756l39.753,13.251,39.753-13.251L287.756,313l-13.251-39.753L254.629,260Z" transform="translate(39.01 84.522)" fill="#508dcb"/>
    <path id="Path_3812" data-name="Path 3812" d="M294.753,273.251,274.876,260,255,273.251v79.505l39.753,13.251,39.753-13.251Z" transform="translate(58.515 84.522)" fill="#81b7ed"/>
    <path id="Path_3813" data-name="Path 3813" d="M199.876,330,180,369.753h99.381l13.251-19.876L279.381,330Z" transform="translate(34.134 107.278)" fill="#1c8af8"/>
    <path id="Path_3814" data-name="Path 3814" d="M334.505,330H255v39.753h99.381Z" transform="translate(58.515 107.278)" fill="#1c8af8"/>
    <path id="Path_3815" data-name="Path 3815" d="M187.756,239.258l13.251-36.44-13.251-43.065L108.251,120,95,203.479l13.251,75.531Z" transform="translate(6.502 39.01)" fill="#81b7ed"/>
    <path id="Path_3816" data-name="Path 3816" d="M75,303.763l39.753-19.876V124.876L75,105Z" transform="translate(0 34.134)" fill="#1c8af8"/>
    <path id="Path_3817" data-name="Path 3817" d="M348.251,239.258l79.505,39.753,13.251-79.505L427.756,120l-79.505,39.753L335,199.505Z" transform="translate(84.522 39.01)" fill="#81b7ed"/>
    <path id="Path_3818" data-name="Path 3818" d="M405,283.886l39.753,19.876V105L405,124.876Z" transform="translate(107.278 34.134)" fill="#1c8af8"/>
    <path id="Path_3819" data-name="Path 3819" d="M195,33.251l39.753,79.505,19.876,13.251,19.876-13.251L287.756,73,274.505,33.251,234.753,20Z" transform="translate(39.01 6.502)" fill="#508dcb"/>
    <path id="Path_3820" data-name="Path 3820" d="M334.505,33.251,294.753,20,255,33.251v79.505l19.876,13.251,19.876-13.251Z" transform="translate(58.515 6.502)" fill="#81b7ed"/>
    <path id="Path_3821" data-name="Path 3821" d="M180,0l19.876,39.753h79.505l13.251-19.876L279.381,0Z" transform="translate(34.134)" fill="#1c8af8"/>
    <path id="Path_3822" data-name="Path 3822" d="M354.381,0H255V39.753h79.505Z" transform="translate(58.515)" fill="#1c8af8"/>
    <path id="Path_3823" data-name="Path 3823" d="M165,90V328.515H284.258l13.251-119.258L284.258,90Z" transform="translate(29.258 29.258)" fill="#827ae0"/>
    <path id="Path_3824" data-name="Path 3824" d="M255,90H374.258V328.515H255Z" transform="translate(58.515 29.258)" fill="#c081ed"/>
    <path id="Path_3825" data-name="Path 3825" d="M195,120V279.01h79.505l13.251-79.505L274.505,120Z" transform="translate(39.01 39.01)" fill="#81b7ed"/>
    <path id="Path_3826" data-name="Path 3826" d="M255,120h79.505V279.01H255Z" transform="translate(58.515 39.01)" fill="#508dcb"/>
    <path id="Path_3827" data-name="Path 3827" d="M240,165v39.753h19.876l13.251-19.876L259.876,165Z" transform="translate(53.639 53.639)" fill="#ffd061"/>
    <path id="Path_3828" data-name="Path 3828" d="M255,165h19.876v39.753H255Z" transform="translate(58.515 53.639)" fill="#e8a300"/>
  </g>
</svg>
