<svg id="design" xmlns="http://www.w3.org/2000/svg" width="512" height="512" viewBox="0 0 512 512">
  <path id="Path_3746" data-name="Path 3746" d="M481.859,30.141l-451.732-.2v451.93H481.859ZM286.9,360.017a14.856,14.856,0,0,0-15.062-15.062h-29.7a14.853,14.853,0,0,0-15.062,15.062l-.012,62.019H89.961v-137.1l60.032-.012a14.853,14.853,0,0,0,15.062-15.062v-29.7A14.856,14.856,0,0,0,149.994,225.1L89.96,225.09V89.973H422.027V422.038H286.91Z" fill="#827ae0"/>
  <path id="Path_3747" data-name="Path 3747" d="M481.859,481.871H30.127l59.834-59.834h137.1l.012-62.019a14.853,14.853,0,0,1,15.062-15.062h29.7A14.856,14.856,0,0,1,286.9,360.017l.011,62.02H422.027V89.973l59.832-59.832Z" fill="#c081ed"/>
  <g id="Group_1400" data-name="Group 1400">
    <path id="Path_3748" data-name="Path 3748" d="M59.837,511.981a59.927,59.927,0,1,1,42.427-102.247,59.474,59.474,0,0,1,17.607,42.213A60.113,60.113,0,0,1,59.837,511.981Z" fill="#81b7ed"/>
    <path id="Path_3749" data-name="Path 3749" d="M60,120.014a60,60,0,1,1,60-60A60.059,60.059,0,0,1,60,120.014Z" fill="#81b7ed"/>
  </g>
  <path id="Path_3750" data-name="Path 3750" d="M301.989,90.014h0Z"/>
  <path id="Path_3751" data-name="Path 3751" d="M448.542,123.278,301.96,269.861s-24.819-7.423-26.092-8.273c-.423-.423-5.94-6.362-12.3-13.151-8.7-9.546-18.879-20.577-18.879-20.577l-2.97-15.7a16.661,16.661,0,0,1,4.031-5.727L388.086,64.094l34.152-6.576,15.7,16.546,19.3,20.153Z" fill="#81b7ed"/>
  <path id="Path_3752" data-name="Path 3752" d="M448.542,123.278,301.96,269.861s-24.819-7.423-26.092-8.273c-.423-.423-5.94-6.362-12.3-13.151L437.937,74.063l19.3,20.153Z" fill="#508dcb"/>
  <g id="Group_1401" data-name="Group 1401">
    <path id="Path_3753" data-name="Path 3753" d="M451.989,512a60,60,0,1,1,60-60A60.059,60.059,0,0,1,451.989,512Z" fill="#508dcb"/>
    <path id="Path_3754" data-name="Path 3754" d="M59.837,511.981a59.787,59.787,0,0,1-42.426-17.394l84.853-84.853a59.474,59.474,0,0,1,17.607,42.213A60.113,60.113,0,0,1,59.837,511.981Z" fill="#508dcb"/>
  </g>
  <path id="Path_3755" data-name="Path 3755" d="M301.96,269.861l-61.3,20.577a15.049,15.049,0,0,1-19.093-19.093l18.879-56.639q.639-1.272,1.274-2.545a47.921,47.921,0,0,1,32.668,1.273,42.332,42.332,0,0,1,14.425,9.759,44.733,44.733,0,0,1,13.152,31.82Z" fill="#fec478"/>
  <path id="Path_3756" data-name="Path 3756" d="M225.168,286.832l63.64-63.64a44.733,44.733,0,0,1,13.152,31.82V269.86l-61.3,20.577A15.137,15.137,0,0,1,225.168,286.832Z" fill="#feb756"/>
  <path id="Path_3757" data-name="Path 3757" d="M499.667,72.153l-51.125,51.125a84.754,84.754,0,0,0-22.061-37.759,81.7,81.7,0,0,0-38.395-21.426l51.76-51.76a42.3,42.3,0,0,1,59.821,59.82Z" fill="#0053bf"/>
  <path id="Path_3758" data-name="Path 3758" d="M448.542,123.278a84.754,84.754,0,0,0-22.061-37.759l73.186-73.186a42.434,42.434,0,0,1,0,59.82Z" fill="#05377f"/>
</svg>
