<svg id="branding" xmlns="http://www.w3.org/2000/svg" width="512" height="512" viewBox="0 0 512 512">
  <path id="Path_3789" data-name="Path 3789" d="M391,45V406L316,512H15A14.854,14.854,0,0,1,0,497V45A14.853,14.853,0,0,1,15,30H376A14.853,14.853,0,0,1,391,45Z" fill="#e6f3ff"/>
  <path id="Path_3790" data-name="Path 3790" d="M391,45V406L316,512H196V30H376A14.853,14.853,0,0,1,391,45Z" fill="#cce6ff"/>
  <path id="Path_3791" data-name="Path 3791" d="M271,436a14.854,14.854,0,0,1-15,15H226a72.693,72.693,0,0,1-30-6.3A74.736,74.736,0,0,1,151,376V346a44.938,44.938,0,0,1,45-45h60a15,15,0,0,1,0,30H196a14.853,14.853,0,0,0-15,15v30a45.442,45.442,0,0,0,45,45h30A14.853,14.853,0,0,1,271,436Z" fill="#c081ed"/>
  <path id="Path_3792" data-name="Path 3792" d="M106,91A14.991,14.991,0,0,1,91,76V15a15,15,0,0,1,30,0V76A14.991,14.991,0,0,1,106,91Z" fill="#827ae0"/>
  <path id="Path_3793" data-name="Path 3793" d="M211,15V76a15,15,0,0,1-30,0V15a15,15,0,0,1,30,0Z" fill="#827ae0"/>
  <path id="Path_3794" data-name="Path 3794" d="M286,91a14.991,14.991,0,0,1-15-15V15a15,15,0,0,1,30,0V76A14.991,14.991,0,0,1,286,91Z" fill="#c081ed"/>
  <path id="Path_3795" data-name="Path 3795" d="M316,151H256a15,15,0,0,1,0-30h60a15,15,0,0,1,0,30Z" fill="#b3ceff"/>
  <path id="Path_3796" data-name="Path 3796" d="M316,211H256a15,15,0,0,1,0-30h60a15,15,0,0,1,0,30Z" fill="#b3ceff"/>
  <path id="Path_3797" data-name="Path 3797" d="M196,91V0a14.853,14.853,0,0,1,15,15V76A14.854,14.854,0,0,1,196,91Z" fill="#c081ed"/>
  <path id="Path_3798" data-name="Path 3798" d="M136,271a75,75,0,1,1,75-75A75.079,75.079,0,0,1,136,271Z" fill="#ffd061"/>
  <path id="Path_3799" data-name="Path 3799" d="M497,241H256a14.853,14.853,0,0,0-15,15V436c0,41.4,33.6,76,75,76H436c41.4,0,76-34.6,76-76V256A14.853,14.853,0,0,0,497,241Z" fill="#827ae0"/>
  <path id="Path_3800" data-name="Path 3800" d="M512,256V436c0,41.4-34.6,76-76,76H376V241H497A14.853,14.853,0,0,1,512,256Z" fill="#c081ed"/>
  <path id="Path_3801" data-name="Path 3801" d="M376,301a75,75,0,1,0,75,75A75.027,75.027,0,0,0,376,301Z" fill="#ffd061"/>
  <path id="Path_3802" data-name="Path 3802" d="M451,376a75.027,75.027,0,0,1-75,75V301A75.027,75.027,0,0,1,451,376Z" fill="#e8a300"/>
</svg>
